<svg xmlns="http://www.w3.org/2000/svg" width="268" height="512">
    <path d="M199.866 392.527c8.243-31.572 19.902-67.564 24.404-103.83-20.014 32.92-44.631 60.953-71.924 73.505 31.187-108.534 42.339-129.947 67.949-146.148-6.022-20.855-17.215-40.798-35.86-58.905 84.191-46.638-17.844-136.8718-57.79-57.7906C86.2933 20.0238-15.9243 110.724 68.7129 157.23c-70.35185 68.405-35.0391 162.167-15.4513 234.698-7.1882-18.715-108.9799-150.974-10.757-224.641C13.427 108.473 29.9428 68.608 62.6703 47.7022 43.8632 39.1046 29.9124 27.9217 35.4076 0c7.4214 20.4699 26.6442 28.4084 45.715 38.4963 28.2254-10.7571 62.7374-10.7672 90.9734-.0304C191.177 28.378 210.42 20.4394 217.892 0c5.496 27.9319-8.455 39.1148-27.272 47.7022 32.737 20.9058 49.253 60.7608 20.175 119.5848 14.681 11.011 24.901 23.38 31.633 36.499 7.279-3.893 15.563-8.435 25.154-14.376-4.045 14.042-9.287 29.067-15.583 44.245 10.747 69.753-48.007 147.608-52.133 158.872zm-146.2191.851c-.1318-.486-.2636-.963-.3954-1.45.2332.609.365 1.085.3954 1.45zm145.9961 0c.02-.223.091-.507.223-.851-.071.283-.152.567-.223.851zm-21.291 44.61c-10.139 25.347-32.474 63.326-42.582 67.929-7.26-5.485-3.052 6.083-9.125 6.083-6.083 0-1.886-11.7-11.011-6.083-8.252-4.664-30.5574-42.582-40.696-67.929 21.2911 24.333 31.541 53.42 42.592 40.828 5.587 12.349 12.704 12.511 18.24-.273 11.152 13.18 21.291-16.222 42.582-40.555zm-75.381 7.026l-1.237-.72 48.392-80.551 1.237.72-48.392 80.551zM80.9806 393.52c2.8186 0 5.1099 2.565 5.1099 5.323v13.89c0 2.758-2.2913 4.988-5.1099 4.988-2.8185 0-5.1098-2.23-5.1098-4.988v-13.89c0-2.758 2.2913-5.323 5.1098-5.323zm13.2208-.253c2.7982 0 5.0693 2.271 5.0693 5.069v14.326c0 2.798-2.2711 5.069-5.0693 5.069-2.7983 0-5.0693-2.271-5.0693-5.069v-14.326c0-2.798 2.271-5.069 5.0693-5.069zm12.8456.081c2.778 0 5.029 2.251 5.029 5.029v14.407c0 2.778-2.251 5.028-5.029 5.028s-5.029-2.25-5.029-5.028v-14.407c0-2.778 2.251-5.029 5.029-5.029zm38.821-.071c2.818 0 5.11 2.291 5.11 5.11v14.234c0 2.819-2.292 5.11-5.11 5.11-2.819 0-5.11-2.291-5.11-5.11v-14.234c0-2.819 2.291-5.11 5.11-5.11zm13.22 0c2.799 0 5.07 2.271 5.07 5.069v14.326c0 2.798-2.271 5.069-5.07 5.069-2.798 0-5.069-2.271-5.069-5.069v-14.326c0-2.798 2.271-5.069 5.069-5.069zm13.14 0c2.778 0 5.029 2.251 5.029 5.029v14.407c0 2.778-2.251 5.028-5.029 5.028s-5.029-2.25-5.029-5.028v-14.407c0-2.778 2.251-5.029 5.029-5.029zm-45.583-105.34c2.798 0 2.535 5.556 2.535 12.207 0 6.65.263 11.872-2.535 11.872s-3.042-4.715-3.042-11.366c0-6.65.244-12.713 3.042-12.713zm-29.4527-40.555c1.6526 0 2.9907 5.445 2.9907 12.167 0 6.721-1.3381 12.166-2.9907 12.166-1.6526 0-2.9909-5.445-2.9909-12.166 0-6.722 1.3383-12.167 2.9909-12.167zm58.7937 0c1.734 0 3.143 5.445 3.143 12.167 0 6.721-1.409 12.166-3.143 12.166-1.734 0-3.143-5.445-3.143-12.166 0-6.722 1.409-12.167 3.143-12.167zm-29.382-39.54c1.653 0 3.001 5.444 3.001 12.166s-1.348 12.166-3.001 12.166c-1.652 0-3.001-5.444-3.001-12.166s1.349-12.166 3.001-12.166zm-53.6937 0c1.683 0 3.0416 5.444 3.0416 12.166s-1.3586 12.166-3.0416 12.166c-1.683 0-3.0416-5.444-3.0416-12.166s1.3586-12.166 3.0416-12.166zm107.4287 0c1.703 0 3.082 5.444 3.082 12.166s-1.379 12.166-3.082 12.166c-1.703 0-3.082-5.444-3.082-12.166s1.379-12.166 3.082-12.166zm-53.694-84.861c3.356 0 7.35 4.766 7.35 8.436v20.105c0 3.67-3.994 7.847-7.35 7.847-3.356 0-8.111-4.177-8.111-7.847v-20.105c0-3.67 4.755-8.436 8.111-8.436zM87.3375 96.3168c8.1616 0 17.0025 9.8142 17.0025 18.0972 0 8.284-8.8409 16.364-17.0025 16.364-8.1615 0-18.4827-8.334-18.4827-16.617 0-8.283 10.311-17.8442 18.4827-17.8442zm79.4765 0c8.111 0 17.621 9.5612 17.621 17.8442 0 8.283-9.51 16.617-17.621 16.617-8.111 0-17.864-8.587-17.864-16.871 0-8.283 9.753-17.6003 17.864-17.6003v.0101zM81.0212 112.032c0 3.082 2.4941 5.576 5.5762 5.576 3.0822 0 5.5763-2.494 5.5763-5.576 0-3.082-2.4941-5.577-5.5763-5.577-3.0821 0-5.5762 2.495-5.5762 5.577zm80.0948 1.5c0 2.961 1.876 4.076 4.715 4.076 2.838 0 6.438-1.125 6.438-4.076 0-2.96-3.164-7.077-6.002-7.077-2.839 0-5.151 4.117-5.151 7.077zm82.295 102.927c-14.64 2.028-50.977 98.517-70.128 114.739z"/>
</svg>